<?xml version="1.0" encoding="UTF-8" standalone="no"?> <svg xmlns="http://www.w3.org/2000/svg" xmlns:xlink="http://www.w3.org/1999/xlink" width="512" height="512" viewBox="0 0 512 512">  <defs>    <linearGradient id="a" data-name="New Gradient Swatch 1" x1="-32.186" y1="468.186" x2="528.745" y2="-92.745" gradientUnits="userSpaceOnUse">      <stop offset="0" stop-color="#003f8a"/>      <stop offset="0.518" stop-color="#00d7df"/>      <stop offset="1" stop-color="#006df0"/>    </linearGradient>    <linearGradient id="b" x1="-56.186" y1="444.186" x2="504.745" y2="-116.745" xlink:href="#a"/>    <linearGradient id="c" x1="-22.186" y1="478.186" x2="538.745" y2="-82.745" xlink:href="#a"/>    <linearGradient id="d" x1="-12.186" y1="488.186" x2="548.745" y2="-72.745" xlink:href="#a"/>    <linearGradient id="e" x1="-164.186" y1="336.186" x2="396.745" y2="-224.745" xlink:href="#a"/>    <linearGradient id="f" x1="-148.186" y1="352.186" x2="412.745" y2="-208.745" xlink:href="#a"/>    <linearGradient id="g" x1="-132.186" y1="368.186" x2="428.745" y2="-192.745" xlink:href="#a"/>    <linearGradient id="h" x1="57.786" y1="558.158" x2="618.717" y2="-2.773" xlink:href="#a"/>  </defs>    <g>    <path d="M144,280a8,8,0,0,0-8,8v8a8,8,0,0,0,16,0v-8A8,8,0,0,0,144,280Z" fill="url(#a)"/>    <path d="M104,296v-8a8,8,0,0,0-16,0v8a8,8,0,0,0,16,0Z" fill="url(#b)"/>    <path d="M136,328H104a8,8,0,0,0,0,16h32a8,8,0,0,0,0-16Z" fill="url(#c)"/>    <path d="M476,16H116A28.031,28.031,0,0,0,88,44V166.02A88.148,88.148,0,0,0,32,248v32c0,.14.01.27.02.41A27.88,27.88,0,0,0,24,300v8a28.031,28.031,0,0,0,28,28h4.51A46.514,46.514,0,0,0,88,373.41V384c0,.66.03,1.32.07,1.97L38.91,400.26c-.25.07-.49.16-.74.25A47.781,47.781,0,0,0,8,445.08V488a8,8,0,0,0,8,8H224a8,8,0,0,0,8-8V445.08a47.781,47.781,0,0,0-30.17-44.57c-.25-.09-.49-.18-.74-.25l-49.16-14.29c.04-.65.07-1.31.07-1.97V373.41A46.609,46.609,0,0,0,181.58,344h80.21l17.78,17.78a8,8,0,0,0,10.57.65l17.98-13.98a93.335,93.335,0,0,0,13.91,5.87l2.46,22.55a8,8,0,0,0,7.95,7.13h37.34a8,8,0,0,0,7.94-7.01l2.78-22.26a94.6,94.6,0,0,0,14.28-5.82l17.43,14a8.019,8.019,0,0,0,10.67-.58L441.21,344H476a28.031,28.031,0,0,0,28-28V44A28.031,28.031,0,0,0,476,16ZM56,320H52a12.01,12.01,0,0,1-12-12v-8a12.01,12.01,0,0,1,12-12h4Zm140.23,95.51A31.845,31.845,0,0,1,216,445.08V480H200v-8a8,8,0,0,0-16,0v8H56v-8a8,8,0,0,0-16,0v8H24V445.08a31.845,31.845,0,0,1,19.77-29.57l49.26-14.32a31.962,31.962,0,0,0,53.94,0ZM104,384v-8h32v8a16,16,0,0,1-32,0Zm64-55c0,17.38-14.06,31-32,31H104c-17.94,0-32-13.62-32-31V260a12.01,12.01,0,0,1,12-12h72a12.01,12.01,0,0,1,12,12Zm-12-97H84a28.031,28.031,0,0,0-28,28v12H48V248a72,72,0,0,1,144,0v24h-8V260A28.031,28.031,0,0,0,156,232Zm44,76a12.01,12.01,0,0,1-12,12h-4V288h4a12.01,12.01,0,0,1,12,12Zm220.43,5.48,12.54,16.13-.75.75-15.58,15.58-16-12.84a7.99,7.99,0,0,0-9.03-.67,78.97,78.97,0,0,1-20.34,8.29,8,8,0,0,0-5.99,6.76L362.72,368h-23.1l-2.27-20.7a8.017,8.017,0,0,0-5.89-6.86,78.435,78.435,0,0,1-19.99-8.42,7.971,7.971,0,0,0-9,.56l-16.58,12.89-15.14-15.14-1.19-1.19,13.19-16.44a8.009,8.009,0,0,0,.68-9.03,78.8,78.8,0,0,1-8.16-19.88,8.015,8.015,0,0,0-6.75-5.95l-21.02-2.63V252.12l20.99-2.3a8.012,8.012,0,0,0,6.87-5.92,78.746,78.746,0,0,1,8.24-19.86,8,8,0,0,0-.59-8.96l-12.98-16.69,16.33-16.33,16.33,13.1a7.982,7.982,0,0,0,9.07.65,78.708,78.708,0,0,1,20.02-8.34,7.984,7.984,0,0,0,5.91-6.75L340.28,160h23.1l2.24,20.48a8.016,8.016,0,0,0,5.97,6.88,78.285,78.285,0,0,1,20.31,8.39,8.032,8.032,0,0,0,8.97-.59l16.24-12.63,16.33,16.33-12.75,15.88a8,8,0,0,0-.64,9.08,78.808,78.808,0,0,1,8.48,20.48,8.013,8.013,0,0,0,6.76,5.96l20.21,2.53v23.09l-20.19,2.21a8,8,0,0,0-6.87,5.93,78.293,78.293,0,0,1-8.57,20.45A7.987,7.987,0,0,0,420.43,313.48ZM488,316a12.01,12.01,0,0,1-12,12H451.29a8.267,8.267,0,0,0-1.35-2.64l-13.63-17.52a94.778,94.778,0,0,0,6.05-14.42l22.01-2.41a8,8,0,0,0,7.13-7.95V245.72a8.009,8.009,0,0,0-7.01-7.94l-21.99-2.74a92.907,92.907,0,0,0-5.98-14.46l13.89-17.29a8.019,8.019,0,0,0-.58-10.67l-26.4-26.4a8,8,0,0,0-10.57-.65L395.19,179.3a94.9,94.9,0,0,0-14.24-5.89l-2.44-22.28a8,8,0,0,0-7.95-7.13H333.22a8,8,0,0,0-7.94,7.01l-2.81,22.52a95.317,95.317,0,0,0-13.94,5.8l-17.74-14.24a8.019,8.019,0,0,0-10.67.58l-26.4,26.4a8.014,8.014,0,0,0-.66,10.57l14.1,18.12a95.225,95.225,0,0,0-5.71,13.74l-22.82,2.49a8,8,0,0,0-7.13,7.95v37.34a8.009,8.009,0,0,0,7.01,7.94l22.79,2.85a95.632,95.632,0,0,0,5.65,13.76l-14.36,17.88a7.946,7.946,0,0,0-1.57,3.29H207.57A27.9,27.9,0,0,0,216,308v-8a27.88,27.88,0,0,0-8.02-19.59c.01-.14.02-.27.02-.41V248a88.034,88.034,0,0,0-104-86.54V80H488Zm0-252H104V44a12.01,12.01,0,0,1,12-12H476a12.01,12.01,0,0,1,12,12Z" fill="url(#d)"/>    <path d="M120,56h8a8,8,0,0,0,0-16h-8a8,8,0,0,0,0,16Z" fill="url(#e)"/>    <path d="M152,56h8a8,8,0,0,0,0-16h-8a8,8,0,0,0,0,16Z" fill="url(#f)"/>    <path d="M184,56h8a8,8,0,0,0,0-16h-8a8,8,0,0,0,0,16Z" fill="url(#g)"/>    <path d="M351.944,200a64,64,0,1,0,64,64A64.073,64.073,0,0,0,351.944,200Zm0,112a48,48,0,1,1,48-48A48.054,48.054,0,0,1,351.944,312Z" fill="url(#h)"/>  </g></svg>